<?xml version="1.0" encoding="iso-8859-1"?>
<!-- Generator: Adobe Illustrator 19.0.0, SVG Export Plug-In . SVG Version: 6.00 Build 0)  -->
<svg version="1.1" id="Capa_1" xmlns="http://www.w3.org/2000/svg" xmlns:xlink="http://www.w3.org/1999/xlink" x="0px" y="0px"
	 viewBox="0 0 512 512" style="enable-background:new 0 0 512 512;" xml:space="preserve">
<path d="M200.42,20c-0.65,0-1.311-0.07-1.95-0.2c-0.64-0.12-1.27-0.32-1.87-0.57c-0.609-0.25-1.189-0.56-1.729-0.92
	c-0.551-0.359-1.061-0.779-1.521-1.24c-0.46-0.46-0.88-0.97-1.24-1.52c-0.359-0.54-0.67-1.12-0.92-1.73
	c-0.25-0.6-0.449-1.229-0.569-1.869c-0.13-0.641-0.2-1.301-0.2-1.95c0-0.65,0.07-1.311,0.2-1.95c0.12-0.64,0.319-1.27,0.569-1.88
	c0.25-0.601,0.561-1.18,0.92-1.72c0.36-0.551,0.78-1.061,1.24-1.521c2.32-2.32,5.771-3.39,9.021-2.729
	c0.64,0.119,1.27,0.319,1.88,0.569c0.6,0.25,1.18,0.561,1.72,0.92c0.55,0.36,1.061,0.78,1.521,1.24s0.88,0.97,1.239,1.521
	c0.37,0.54,0.67,1.119,0.92,1.72c0.25,0.61,0.45,1.24,0.57,1.88c0.13,0.64,0.2,1.3,0.2,1.95c0,0.649-0.07,1.31-0.2,1.95
	c-0.12,0.64-0.32,1.27-0.57,1.869c-0.25,0.61-0.56,1.19-0.92,1.73c-0.359,0.55-0.779,1.06-1.239,1.52
	c-0.46,0.461-0.971,0.881-1.521,1.24c-0.54,0.36-1.12,0.67-1.72,0.92c-0.61,0.25-1.24,0.45-1.88,0.57
	C201.729,19.93,201.069,20,200.42,20z"/>
<path d="M422.74,20c-0.65,0-1.311-0.07-1.96-0.2c-0.631-0.12-1.261-0.32-1.87-0.57c-0.601-0.25-1.181-0.56-1.721-0.92
	c-0.55-0.359-1.06-0.779-1.52-1.24c-0.47-0.46-0.88-0.97-1.25-1.52c-0.36-0.54-0.67-1.12-0.92-1.73c-0.25-0.6-0.44-1.229-0.57-1.869
	c-0.13-0.641-0.189-1.301-0.189-1.95c0-0.65,0.06-1.311,0.189-1.95s0.32-1.27,0.57-1.88c0.25-0.601,0.56-1.18,0.92-1.72
	c0.37-0.551,0.78-1.061,1.25-1.521c0.46-0.46,0.97-0.88,1.52-1.24c0.54-0.359,1.12-0.67,1.721-0.92
	c0.609-0.25,1.239-0.45,1.87-0.569c1.289-0.261,2.619-0.261,3.909,0c0.641,0.119,1.271,0.319,1.87,0.569
	c0.601,0.25,1.181,0.561,1.73,0.92c0.54,0.36,1.06,0.78,1.52,1.24s0.88,0.97,1.24,1.521c0.36,0.54,0.67,1.119,0.92,1.72
	c0.25,0.61,0.44,1.24,0.57,1.88s0.2,1.3,0.2,1.95c0,0.649-0.07,1.31-0.2,1.95c-0.13,0.64-0.32,1.27-0.57,1.869
	c-0.25,0.61-0.56,1.19-0.92,1.73c-0.36,0.55-0.78,1.06-1.24,1.52c-0.46,0.461-0.979,0.881-1.52,1.24c-0.55,0.36-1.13,0.67-1.73,0.92
	s-1.229,0.45-1.87,0.57C424.05,19.93,423.39,20,422.74,20z"/>
<g>
	<circle style="fill:#8A898A;" cx="422.74" cy="109.27" r="31.645"/>
	<circle style="fill:#8A898A;" cx="422.74" cy="402" r="31.645"/>
	<circle style="fill:#8A898A;" cx="89.26" cy="109.27" r="31.645"/>
	<circle style="fill:#8A898A;" cx="89.26" cy="402" r="31.645"/>
</g>
<path style="fill:#F9D25B;" d="M291.299,265.233c22.708-8.443,38.869-21.95,49.749-34.185c6.751-7.592,10.396-17.444,10.407-27.603
	l0,0c0.011-10.176-3.622-20.054-10.379-27.663c-10.862-12.232-27.013-25.724-49.75-34.151c-7.761-2.878-16.288-5.165-25.633-6.611
	v136.846C275.025,270.414,283.543,268.12,291.299,265.233z"/>
<path style="fill:#F15D5C;" d="M158.632,182.228c-8.234-15.105-24.987-25.445-44.315-25.445c-9.06,0-17.555,2.272-24.871,6.242
	c14.868,8.068,24.871,23.146,24.871,40.417s-10.003,32.349-24.871,40.417c7.317,3.97,15.811,6.242,24.871,6.242
	c19.263,0,35.968-10.271,44.232-25.293"/>
<path style="fill:#F9993A;" d="M242.609,133.286c-67.548,0-95.807,70.156-95.807,70.156s27.528,70.156,95.807,70.156
	c8.195,0,15.882-0.618,23.084-1.738V135.015C258.493,133.901,250.806,133.286,242.609,133.286z"/>
<path d="M297.715,202.702c-5.522,0-10-4.478-10-10v-5.751c0-5.522,4.478-10,10-10s10,4.478,10,10v5.751
	C307.715,198.225,303.237,202.702,297.715,202.702z"/>
<path d="M233.673,213.442h-41.585c-5.522,0-10-4.478-10-10s4.478-10,10-10h41.585c5.522,0,10,4.478,10,10
	S239.195,213.442,233.673,213.442z"/>
<path style="fill:#32C8AF;" d="M334.462,352.202c15.596,4.944,33.906,0.791,46.9-12.203c5.982-5.982,10.091-13.091,12.3-20.544
	c-15.144,4.49-31.705,1.139-43.109-10.265s-14.755-27.965-10.265-43.109c-7.452,2.21-14.561,6.318-20.544,12.3
	c-12.952,12.952-17.12,31.185-12.25,46.748"/>
<path style="fill:#49B68D;" d="M192.237,385.91c-9.419,20.568-11.171,40.158-10.277,55.42c0.555,9.47,4.654,18.382,11.354,25.098
	l0,0c6.712,6.726,15.633,10.849,25.118,11.412c15.249,0.904,34.821-0.851,55.398-10.3c7.025-3.224,14.165-7.344,21.29-12.56
	l-90.357-90.357C199.561,371.744,195.451,378.883,192.237,385.91z"/>
<path style="fill:#AFFFF5;" d="M311.507,440.883c44.601-44.601,16.936-109.582,16.936-109.582s-64.499-28.147-109.582,16.936
	c-5.411,5.411-10.078,10.894-14.094,16.389l90.357,90.357C300.614,450.964,306.095,446.295,311.507,440.883z"/>
<path d="M502,210.421c5.522,0,10-4.478,10-10s-4.478-10-10-10h-69.264v-40.725c14.945-3.697,26.733-15.486,30.43-30.43H502
	c5.522,0,10-4.478,10-10s-4.478-10-10-10h-38.833c-3.697-14.945-15.486-26.733-30.43-30.43V52.332c0-5.522-4.478-10-10-10
	s-10,4.478-10,10v16.503c-14.945,3.697-26.733,15.486-30.43,30.43H321.58V10c0-5.522-4.478-10-10-10s-10,4.478-10,10v89.266h-91.158
	V52.332c0-5.522-4.478-10-10-10s-10,4.478-10,10v46.934h-60.727c-3.697-14.945-15.486-26.733-30.43-30.43V10c0-5.522-4.478-10-10-10
	s-10,4.478-10,10v58.835c-14.945,3.697-26.733,15.486-30.43,30.43H10c-5.522,0-10,4.478-10,10s4.478,10,10,10h38.833
	c3.697,14.945,15.486,26.733,30.43,30.43v40.725H10c-5.522,0-10,4.478-10,10s4.478,10,10,10h69.264v91.158H10
	c-5.522,0-10,4.478-10,10s4.478,10,10,10h69.264v39.988c-15.189,3.758-27.118,15.874-30.605,31.167H10c-5.522,0-10,4.478-10,10
	s4.478,10,10,10h39.023c3.897,14.595,15.543,26.058,30.241,29.694V502c0,5.522,4.478,10,10,10s10-4.478,10-10v-59.571
	c14.698-3.636,26.344-15.1,30.241-29.694h44.046c-1.627,9.509-2.155,19.256-1.573,29.182c0.694,11.842,5.758,23.055,14.259,31.575
	c1.332,1.334,2.729,2.584,4.185,3.746V502c0,5.522,4.478,10,10,10s10-4.478,10-10v-15.204c2.432,0.532,4.912,0.878,7.42,1.027
	c2.619,0.155,5.225,0.233,7.819,0.233c18.23-0.001,35.806-3.833,52.342-11.428c7.868-3.611,15.525-8.115,22.766-13.389
	c0.089-0.061,0.177-0.122,0.264-0.186c0.183-0.134,0.365-0.268,0.548-0.403V502c0,5.522,4.478,10,10,10s10-4.478,10-10v-57.183
	c8.603-9.4,15.077-20.182,19.328-32.083h41.588c3.897,14.595,15.543,26.058,30.241,29.694V502c0,5.522,4.478,10,10,10
	s10-4.478,10-10v-59.571c14.698-3.636,26.344-15.1,30.241-29.694H502c5.522,0,10-4.478,10-10s-4.478-10-10-10h-38.658
	c-3.487-15.293-15.416-27.409-30.605-31.167V321.58H502c5.522,0,10-4.478,10-10s-4.478-10-10-10h-69.264v-91.158H502V210.421z
	 M422.736,87.621c11.935,0,21.645,9.71,21.645,21.645s-9.71,21.645-21.645,21.645s-21.645-9.71-21.645-21.645
	S410.802,87.621,422.736,87.621z M382.306,119.266c3.697,14.945,15.486,26.733,30.43,30.43v40.725h-52.909
	c-2.012-7.868-5.847-15.168-11.274-21.279c-8.082-9.101-17.101-16.916-26.975-23.391v-26.485
	C321.578,119.266,382.306,119.266,382.306,119.266z M375.946,331.169c-0.532,0.602-1.084,1.188-1.655,1.759
	c-8.483,8.484-20.342,12.499-31.433,10.954c-2.41-9.831-5.031-16.068-5.214-16.498c-1-2.35-2.861-4.228-5.201-5.248
	c-0.43-0.188-6.703-2.89-16.597-5.366c-1.5-11.056,2.523-22.87,10.97-31.316c0.57-0.571,1.157-1.123,1.759-1.655
	c1.042,12.21,6.181,23.737,14.907,32.464C352.21,324.989,363.734,330.128,375.946,331.169z M304.436,433.812
	c-2.762,2.762-5.608,5.379-8.514,7.827l-77.814-77.814c2.448-2.907,5.064-5.755,7.825-8.516
	c16.437-16.437,37.751-24.014,63.369-22.504c13.991,0.821,25.628,4.252,31.341,6.233c1.951,5.764,5.325,17.488,6.112,31.545
	C328.194,396.29,320.685,417.563,304.436,433.812z M211.79,341.166c-0.46,0.46-0.916,0.922-1.369,1.387v-20.974h29.53
	C229.558,326.298,220.105,332.851,211.79,341.166z M301.596,286.571c-2.417,4.785-4.139,9.838-5.127,15.009h-86.048v-23.117
	c10.261,3.402,21.038,5.138,32.188,5.138c8.313,0,16.497-0.61,24.333-1.813c0.095-0.012,0.191-0.025,0.286-0.04
	c9.541-1.483,18.813-3.886,27.556-7.141c2.298-0.854,4.563-1.767,6.795-2.737V286C301.579,286.192,301.585,286.382,301.596,286.571z
	 M124.316,203.442c0-13.514-5.124-26.397-14.039-36.47c1.338-0.126,2.687-0.189,4.039-0.189c13.069,0,25.017,5.795,32.409,15.429
	c-6.063,9.807-9.005,17.013-9.198,17.494c-0.954,2.368-0.966,5.012-0.033,7.389c0.19,0.484,3.091,7.778,9.15,17.681
	c-7.402,9.571-19.319,15.327-32.328,15.327c-1.353,0-2.701-0.063-4.04-0.189C119.191,229.841,124.316,216.957,124.316,203.442z
	 M157.78,203.487c2.832-5.779,9.226-17.463,19.489-28.953c18.522-20.734,40.506-31.248,65.34-31.248
	c4.425,0,8.801,0.194,13.083,0.58v119.15c-4.282,0.388-8.658,0.583-13.083,0.583c-25.118,0-47.186-10.503-65.588-31.218
	C166.835,220.915,160.553,209.253,157.78,203.487z M287.813,255.859c0,0-0.003,0.001-0.004,0.002
	c-3.919,1.459-7.969,2.719-12.117,3.771V147.24c4.163,1.051,8.227,2.31,12.158,3.768c17.655,6.543,33.047,17.112,45.748,31.415
	c5.075,5.714,7.864,13.176,7.856,21.01c-0.009,7.818-2.808,15.266-7.88,20.97C320.843,238.72,305.446,249.304,287.813,255.859z
	 M301.579,119.266v15.709c-2.226-0.964-4.485-1.871-6.776-2.72c-8.661-3.212-17.843-5.591-27.293-7.073
	c-0.095-0.018-0.191-0.034-0.288-0.049c-7.92-1.226-16.201-1.847-24.612-1.847c-11.13,0-21.908,1.763-32.188,5.22v-9.24H301.579z
	 M190.421,137.742c-10.26,6.126-19.833,14.154-28.537,23.998c-1.102,1.247-2.164,2.493-3.188,3.734
	c-11.165-11.769-27.155-18.691-44.38-18.691c-2.722,0-5.433,0.177-8.114,0.524c11.585-5.179,20.389-15.499,23.492-28.042h60.727
	V137.742z M67.619,109.266c0-11.935,9.71-21.645,21.645-21.645s21.645,9.71,21.645,21.645s-9.71,21.645-21.645,21.645
	S67.619,121.2,67.619,109.266z M99.264,185.611c0.935,1.546,1.75,3.154,2.436,4.81h-2.436V185.611z M103.581,210.421
	c-0.812,3.821-2.279,7.484-4.317,10.855v-10.855H103.581z M99.264,258.279c4.893,1.205,9.954,1.824,15.053,1.824
	c17.14,0,33.078-6.869,44.241-18.551c0.975,1.187,1.986,2.379,3.034,3.571c8.751,9.956,18.424,18.055,28.83,24.209v32.247H99.264
	V258.279z M89.264,423.643c-11.935,0-21.645-9.71-21.645-21.645s9.71-21.645,21.645-21.645s21.645,9.71,21.645,21.645
	S101.198,423.643,89.264,423.643z M129.869,392.734c-3.487-15.293-15.416-27.409-30.605-31.167v-39.988h91.157v46.509
	c-2.72,4.452-5.155,9.02-7.278,13.662c-1.654,3.613-3.129,7.276-4.424,10.984H129.869z M269.657,458.452
	c-15.879,7.291-32.913,10.451-50.633,9.405c-6.961-0.413-13.578-3.43-18.631-8.492c-5.041-5.054-8.043-11.667-8.451-18.62
	c-1.04-17.75,2.118-34.799,9.386-50.672c0.001-0.001,0.001-0.002,0.002-0.003c1.499-3.277,3.185-6.517,5.044-9.694l73.003,73.003
	C276.19,455.249,272.943,456.944,269.657,458.452z M444.381,401.998c0,11.935-9.71,21.645-21.645,21.645s-21.645-9.71-21.645-21.645
	s9.71-21.645,21.645-21.645S444.381,390.063,444.381,401.998z M412.736,361.568c-15.189,3.758-27.118,15.874-30.605,31.167h-36.327
	c1.089-7.673,1.388-15.685,0.878-23.981c-0.094-1.53-0.214-3.033-0.355-4.509c0.497,0.014,0.993,0.021,1.49,0.021
	c14.797,0,29.438-6.016,40.617-17.194c6.948-6.949,12.072-15.516,14.816-24.773c0.071-0.238,0.132-0.477,0.184-0.718h9.302
	L412.736,361.568L412.736,361.568z M412.736,301.579h-55.638c-7.966-8.37-10.735-20.805-7.222-32.654
	c1.042-3.516,0.076-7.32-2.517-9.914c-2.595-2.593-6.401-3.561-9.914-2.516c-5.613,1.664-10.97,4.202-15.867,7.49v-2.922
	c9.851-6.474,18.859-14.281,26.941-23.37c6.79-7.636,11.098-17.132,12.464-27.272h51.752v91.158H412.736z"/>
<path d="M239.688,451.835c-2.56,0-5.118-0.977-7.071-2.929l-3.798-3.798c-3.905-3.905-3.905-10.237,0-14.143
	c3.906-3.904,10.236-3.904,14.143,0l3.798,3.798c3.905,3.905,3.905,10.237,0,14.143
	C244.807,450.858,242.248,451.835,239.688,451.835z"/>
<path d="M271.084,398.66c-2.56,0-5.118-0.977-7.071-2.929c-3.905-3.905-3.905-10.237,0-14.143l27.459-27.458
	c3.907-3.904,10.237-3.903,14.143,0c3.905,3.905,3.905,10.237,0,14.143l-27.459,27.458
	C276.202,397.684,273.643,398.66,271.084,398.66z"/>
<g>
</g>
<g>
</g>
<g>
</g>
<g>
</g>
<g>
</g>
<g>
</g>
<g>
</g>
<g>
</g>
<g>
</g>
<g>
</g>
<g>
</g>
<g>
</g>
<g>
</g>
<g>
</g>
<g>
</g>
</svg>
